# 3ds Max Wavefront OBJ Exporter v0.97b - (c)2007 guruware
# File Created: 11.05.2016 10:42:27

#
# object Box002
#

v  10.5000 -1.0000 10.5000
v  10.5000 -1.0000 -10.5000
v  10.5000 1.0000 -10.5000
v  10.5000 1.0000 10.5000
v  -10.5000 -1.0000 -10.5000
v  -10.5000 -1.0000 10.5000
v  -10.5000 1.0000 10.5000
v  -10.5000 1.0000 -10.5000
v  -5.3592 -1.0000 -10.5000
v  -5.3592 -1.0000 10.5000
v  5.3592 -1.0000 10.5000
v  5.3592 -1.0000 -10.5000
v  -5.3592 1.0000 10.5000
v  -5.3592 1.0000 -10.5000
v  5.3592 1.0000 -10.5000
v  5.3592 1.0000 10.5000
# 16 vertices

vn 1.0000 0.0000 -0.0000
vn -1.0000 0.0000 -0.0000
vn 0.0000 -1.0000 -0.0000
vn 0.0000 1.0000 0.0000
vn 0.0000 0.0000 1.0000
vn 0.0000 0.0000 -1.0000
# 6 vertex normals

g Box002
s 16
f 1//1 2//1 3//1 4//1 
s 64
f 5//2 6//2 7//2 8//2 
s 2
f 6//3 5//3 9//3 10//3 
f 2//3 1//3 11//3 12//3 
s 4
f 8//4 7//4 13//4 14//4 
f 4//4 3//4 15//4 16//4 
s 8
f 7//5 6//5 10//5 13//5 
f 1//5 4//5 16//5 11//5 
s 32
f 3//6 2//6 12//6 15//6 
f 5//6 8//6 14//6 9//6 
s off
f 14//1 13//1 10//1 9//1 
f 16//2 15//2 12//2 11//2 
# 12 polygons

