# 3ds Max Wavefront OBJ Exporter v0.97b - (c)2007 guruware
# File Created: 11.05.2016 10:43:18

#
# object Box008
#

v  10.5000 -1.0000 10.5000
v  10.5000 -1.0000 -10.5000
v  10.5000 1.0000 -10.5000
v  10.5000 1.0000 10.5000
v  -10.5000 -1.0000 -10.5000
v  -10.5000 1.0000 -10.5000
v  -10.5000 -1.0000 -8.3273
v  -10.5000 1.0000 -8.3273
v  8.2249 1.0000 -8.3273
v  8.2249 1.0000 10.5000
v  8.2249 -1.0000 10.5000
v  8.2249 -1.0000 -8.3273
# 12 vertices

vn 1.0000 0.0000 -0.0000
vn 0.0000 0.0000 -1.0000
vn -1.0000 0.0000 -0.0000
vn -0.0000 1.0000 0.0000
vn 0.0000 1.0000 0.0000
vn 0.0000 0.0000 1.0000
vn 0.0000 -1.0000 -0.0000
# 7 vertex normals

g Box008
s 16
f 1//1 2//1 3//1 4//1 
s 32
f 5//2 6//2 3//2 2//2 
s 64
f 7//3 8//3 6//3 5//3 
s 4
f 3//4 6//5 8//5 9//4 
f 4//4 3//4 9//4 10//5 
s 8
f 1//6 4//6 10//6 11//6 
s 2
f 1//7 11//7 12//7 2//7 
f 5//7 2//7 12//7 7//7 
s off
f 9//3 12//3 11//3 10//3 
f 9//6 8//6 7//6 12//6 
# 10 polygons

