# 3ds Max Wavefront OBJ Exporter v0.97b - (c)2007 guruware
# File Created: 11.05.2016 10:43:43

#
# object Box010
#

v  -10.4921 0.0527 10.5000
v  -10.4921 -1.9473 10.5000
v  10.5079 -1.9473 10.5000
v  10.5079 0.0527 10.5000
v  10.5079 -1.9473 1.3682
v  10.5079 0.0527 1.3682
v  -10.4921 0.0527 -10.5000
v  -10.4921 -1.9473 -10.5000
v  -9.4847 -0.9473 -10.5000
v  -8.4772 -1.9473 -10.5000
v  -8.4772 0.0527 -10.5000
v  -8.4772 0.0527 1.3682
v  -8.4772 -1.9473 1.3682
v  -8.6133 0.4243 -10.5000
v  -8.4772 0.9320 -10.5000
v  -8.4772 0.9320 10.5000
v  -8.6133 0.4243 10.5000
v  -8.9849 0.0527 -10.5000
v  -8.9849 0.0527 10.5000
v  -10.3718 0.4243 -10.5000
v  -10.0002 0.0527 -10.5000
v  -10.0002 0.0527 10.5000
v  -10.3718 0.4243 10.5000
v  -10.5079 0.9320 -10.5000
v  -10.5079 0.9320 10.5000
v  -10.3718 1.4396 -10.5000
v  -10.3718 1.4396 10.5000
v  -10.0002 1.8113 -10.5000
v  -10.0002 1.8113 10.5000
v  -9.4926 1.9473 -10.5000
v  -9.4926 1.9473 10.5000
v  -8.9849 1.8113 -10.5000
v  -8.9849 1.8113 10.5000
v  -8.6133 1.4396 -10.5000
v  -8.6133 1.4396 10.5000
# 35 vertices

vn 0.0000 0.0000 1.0000
vn 1.0000 0.0000 -0.0000
vn -1.0000 0.0000 -0.0000
vn 0.0000 0.0000 -1.0000
vn -0.0000 1.0000 0.0000
vn 0.0000 1.0000 0.0000
vn 0.0000 -1.0000 -0.0000
vn 0.8660 -0.5000 0.0000
vn 1.0000 0.0000 0.0000
vn 0.7071 -0.7071 0.0000
vn -0.8660 -0.5000 0.0000
vn -0.7071 -0.7071 0.0000
vn -1.0000 -0.0000 0.0000
vn -1.0000 -0.0000 -0.0000
vn -0.8660 0.5000 -0.0000
vn -0.5000 0.8660 -0.0000
vn -0.0000 1.0000 -0.0000
vn 0.5000 0.8660 -0.0000
vn 0.8660 0.5000 -0.0000
# 19 vertex normals

g Box010
s 8
f 1//1 2//1 3//1 4//1 
s 16
f 4//2 3//2 5//2 6//2 
s 64
f 1//3 7//3 8//3 2//3 
s 32
f 9//4 10//4 10//4 8//4 
s off
f 11//2 12//2 13//2 10//2 
f 13//2 10//2 10//2 
f 13//4 12//4 6//4 5//4 
f 12//5 11//5 7//5 1//5 
f 1//6 4//6 6//6 12//6 
f 13//7 5//7 3//7 2//7 
f 2//7 8//7 10//7 13//7 
s 32
f 8//4 7//4 9//4 
f 7//4 11//4 9//4 
f 9//4 11//4 10//4 
s 8
f 14//8 15//2 16//9 17//8 
f 18//10 14//8 17//8 19//10 
f 20//11 21//12 22//12 23//11 
f 24//13 20//11 23//11 25//14 
f 26//15 24//13 25//14 27//15 
f 28//16 26//15 27//15 29//16 
f 30//17 28//16 29//16 31//17 
f 32//18 30//17 31//17 33//18 
f 34//19 32//18 33//18 35//19 
f 15//2 34//19 35//19 16//9 
# 20 polygons - 4 triangles

