# 3ds Max Wavefront OBJ Exporter v0.97b - (c)2007 guruware
# File Created: 18.05.2016 12:17:29

#
# object modulo_10
#

v  1.0000 1.0000 -0.5000
v  1.0000 1.0000 -10.5000
v  -1.0000 1.0000 -10.5000
v  1.0000 1.0000 3.5000
v  -1.0000 1.0000 3.5000
v  -1.0000 1.0000 -0.5000
v  1.0000 -1.0000 -10.5000
v  -1.0000 -1.0000 -10.5000
v  -2.5000 1.0000 1.0789
v  -2.5000 1.0000 4.5000
v  -1.5000 1.0000 3.5000
v  -1.5000 1.0000 0.0263
v  9.5000 1.0000 10.5000
v  10.5000 1.0000 10.5000
v  10.5000 1.0000 9.5000
v  9.5000 1.0000 9.5000
v  8.5000 1.0000 10.5000
v  8.5000 1.0000 9.5000
v  7.5000 1.0000 9.5000
v  -10.5000 1.0000 10.5000
v  -9.5000 1.0000 10.5000
v  -9.5000 1.0000 9.5000
v  -10.5000 1.0000 9.5000
v  -9.5000 1.0000 8.4474
v  -8.5000 1.0000 10.5000
v  -8.5000 1.0000 9.5000
v  -8.5000 1.0000 7.3947
v  -7.5000 1.0000 9.5000
v  -7.5000 1.0000 6.3421
v  -6.5000 1.0000 8.5000
v  -6.5000 1.0000 5.2895
v  -5.5000 1.0000 7.5000
v  -5.5000 1.0000 4.2368
v  -4.5000 1.0000 6.5000
v  -4.5000 1.0000 3.1842
v  -3.5000 1.0000 5.5000
v  -3.5000 1.0000 2.1316
v  1.5000 1.0000 3.5000
v  1.5000 1.0000 0.0263
v  2.5000 1.0000 4.5000
v  2.5000 1.0000 1.0789
v  3.5000 1.0000 5.5000
v  3.5000 1.0000 2.1316
v  4.5000 1.0000 6.5000
v  4.5000 1.0000 3.1842
v  5.5000 1.0000 7.5000
v  5.5000 1.0000 4.2368
v  6.5000 1.0000 8.5000
v  6.5000 1.0000 5.2895
v  7.5000 1.0000 6.3421
v  8.5000 1.0000 7.3947
v  9.5000 1.0000 8.4474
v  -10.5000 -1.0000 10.5000
v  -9.5000 -1.0000 10.5000
v  10.5000 -1.0000 10.5000
v  10.5000 -1.0000 9.5000
v  -8.5000 -1.0000 10.5000
v  8.5000 -1.0000 10.5000
v  9.5000 -1.0000 10.5000
v  -10.5000 -1.0000 9.5000
v  -1.5000 -1.0000 3.5000
v  -1.0000 -1.0000 3.5000
v  1.0000 -1.0000 3.5000
v  1.5000 -1.0000 3.5000
v  1.0000 -1.0000 -0.5000
v  -1.0000 -1.0000 -0.5000
v  -1.5000 -1.0000 0.0263
v  -2.5000 -1.0000 1.0789
v  -3.5000 -1.0000 2.1316
v  -4.5000 -1.0000 3.1842
v  -5.5000 -1.0000 4.2368
v  -6.5000 -1.0000 5.2895
v  -7.5000 -1.0000 6.3421
v  -8.5000 -1.0000 7.3947
v  -9.5000 -1.0000 8.4474
v  1.5000 -1.0000 0.0263
v  2.5000 -1.0000 1.0789
v  3.5000 -1.0000 2.1316
v  4.5000 -1.0000 3.1842
v  5.5000 -1.0000 4.2368
v  6.5000 -1.0000 5.2895
v  7.5000 -1.0000 6.3421
v  8.5000 -1.0000 7.3947
v  9.5000 -1.0000 8.4474
v  -7.5000 -1.0000 9.5000
v  -6.5000 -1.0000 8.5000
v  -5.5000 -1.0000 7.5000
v  -4.5000 -1.0000 6.5000
v  -3.5000 -1.0000 5.5000
v  -2.5000 -1.0000 4.5000
v  2.5000 -1.0000 4.5000
v  3.5000 -1.0000 5.5000
v  4.5000 -1.0000 6.5000
v  5.5000 -1.0000 7.5000
v  6.5000 -1.0000 8.5000
v  7.5000 -1.0000 9.5000
v  9.5000 -1.0000 9.5000
v  8.5000 -1.0000 9.5000
v  -9.5000 -1.0000 9.5000
v  -8.5000 -1.0000 9.5000
# 100 vertices

vn 0.0000 1.0000 -0.0000
vn 0.0000 0.0000 -1.0000
vn 0.0000 0.0000 1.0000
vn 1.0000 0.0000 -0.0000
vn -1.0000 0.0000 -0.0000
vn -0.7250 0.0000 -0.6887
vn 0.7250 0.0000 -0.6887
vn 0.7071 0.0000 0.7071
vn -0.7071 0.0000 0.7071
vn 0.0000 -1.0000 -0.0000
vn -0.0000 -1.0000 -0.0000
vn 0.0000 -1.0000 0.0000
vn -0.0000 -1.0000 0.0000
# 13 vertex normals

g modulo_10
s 4
f 1//1 2//1 3//1 4//1 
f 5//1 4//1 3//1 6//1 
s 32
f 3//2 2//2 7//2 8//2 
s 4
f 9//1 10//1 11//1 12//1 
f 12//1 11//1 5//1 6//1 
f 13//1 14//1 15//1 16//1 
f 17//1 13//1 16//1 18//1 
f 19//1 17//1 18//1 
f 20//1 21//1 22//1 23//1 
f 23//1 22//1 24//1 
f 21//1 25//1 26//1 22//1 
f 22//1 26//1 27//1 24//1 
f 26//1 25//1 28//1 
f 26//1 28//1 29//1 27//1 
f 29//1 28//1 30//1 31//1 
f 31//1 30//1 32//1 33//1 
f 33//1 32//1 34//1 35//1 
f 35//1 34//1 36//1 37//1 
f 37//1 36//1 10//1 9//1 
f 4//1 38//1 39//1 1//1 
f 38//1 40//1 41//1 39//1 
f 40//1 42//1 43//1 41//1 
f 42//1 44//1 45//1 43//1 
f 44//1 46//1 47//1 45//1 
f 46//1 48//1 49//1 47//1 
f 48//1 19//1 50//1 49//1 
f 19//1 18//1 51//1 50//1 
f 18//1 16//1 52//1 51//1 
f 52//1 16//1 15//1 
s off
f 21//3 20//3 53//3 54//3 
f 15//4 14//4 55//4 56//4 
f 25//3 21//3 54//3 57//3 
f 13//3 17//3 58//3 59//3 
f 14//3 13//3 59//3 55//3 
f 20//5 23//5 60//5 53//5 
f 5//3 11//3 61//3 62//3 
f 38//3 4//3 63//3 64//3 
f 5//3 62//3 63//3 4//3 
f 2//4 1//4 65//4 7//4 
f 6//5 3//5 8//5 66//5 
f 12//6 6//6 66//6 67//6 
f 9//6 12//6 67//6 68//6 
f 37//6 9//6 68//6 69//6 
f 35//6 37//6 69//6 70//6 
f 33//6 35//6 70//6 71//6 
f 31//6 33//6 71//6 72//6 
f 29//6 31//6 72//6 73//6 
f 27//6 29//6 73//6 74//6 
f 24//6 27//6 74//6 75//6 
f 23//6 24//6 75//6 60//6 
f 1//7 39//7 76//7 65//7 
f 39//7 41//7 77//7 76//7 
f 41//7 43//7 78//7 77//7 
f 43//7 45//7 79//7 78//7 
f 45//7 47//7 80//7 79//7 
f 47//7 49//7 81//7 80//7 
f 49//7 50//7 82//7 81//7 
f 50//7 51//7 83//7 82//7 
f 51//7 52//7 84//7 83//7 
f 52//7 15//7 56//7 84//7 
f 28//8 25//8 57//8 85//8 
f 30//8 28//8 85//8 86//8 
f 32//8 30//8 86//8 87//8 
f 34//8 32//8 87//8 88//8 
f 36//8 34//8 88//8 89//8 
f 10//8 36//8 89//8 90//8 
f 11//8 10//8 90//8 61//8 
f 40//9 38//9 64//9 91//9 
f 42//9 40//9 91//9 92//9 
f 44//9 42//9 92//9 93//9 
f 46//9 44//9 93//9 94//9 
f 48//9 46//9 94//9 95//9 
f 19//9 48//9 95//9 96//9 
f 17//9 19//9 96//9 58//9 
s 4
f 63//10 62//10 66//10 8//10 
f 63//10 8//10 7//10 65//10 
f 68//11 67//11 61//11 90//11 
f 67//10 66//10 62//10 61//10 
f 59//12 97//12 56//12 55//12 
f 58//12 98//12 97//10 59//10 
f 96//12 98//10 58//10 
f 53//12 60//12 99//12 54//12 
f 60//10 75//10 99//10 
f 54//10 99//10 100//12 57//12 
f 99//10 75//10 74//10 100//10 
f 100//10 85//12 57//10 
f 100//10 74//10 73//11 85//10 
f 73//10 72//10 86//10 85//10 
f 72//10 71//12 87//12 86//10 
f 71//10 70//13 88//13 87//10 
f 70//10 69//10 89//10 88//10 
f 69//10 68//10 90//10 89//10 
f 63//10 65//10 76//10 64//10 
f 64//10 76//10 77//10 91//10 
f 91//10 77//10 78//10 92//10 
f 92//10 78//10 79//11 93//11 
f 93//10 79//10 80//12 94//12 
f 94//10 80//10 81//13 95//13 
f 95//10 81//10 82//11 96//10 
f 96//10 82//10 83//10 98//10 
f 98//10 83//10 84//11 97//10 
f 84//10 56//10 97//10 
# 94 polygons - 8 triangles

