# 3ds Max Wavefront OBJ Exporter v0.97b - (c)2007 guruware
# File Created: 11.05.2016 10:42:55

#
# object Box005
#

v  -10.5000 -1.0000 10.5000
v  -10.5000 -1.0000 7.4277
v  0.0000 -1.0000 7.4277
v  10.5000 -1.0000 10.5000
v  10.5000 -1.0000 -4.0659
v  0.0000 -1.0000 4.0659
v  0.0000 -1.0000 -4.0659
v  -10.5000 -1.0000 -4.0659
v  -10.5000 -1.0000 4.0659
v  10.5000 1.0000 10.5000
v  -10.5000 1.0000 10.5000
v  10.5000 1.0000 -4.0659
v  10.5000 -1.0000 -10.5000
v  -10.5000 -1.0000 -10.5000
v  -10.5000 1.0000 -10.5000
v  10.5000 1.0000 -10.5000
v  -10.5000 1.0000 4.0659
v  -10.5000 -1.0000 -7.4277
v  10.5000 -1.0000 -7.4277
v  0.0000 -1.0000 -7.4277
v  0.0000 1.0000 -7.4277
v  10.5000 1.0000 -7.4277
v  0.0000 1.0000 -4.0659
v  0.0000 1.0000 4.0659
v  0.0000 1.0000 7.4277
v  -10.5000 1.0000 7.4277
# 26 vertices

vn 0.0000 -1.0000 -0.0000
vn -0.0000 -1.0000 -0.0000
vn 0.0000 0.0000 1.0000
vn 1.0000 0.0000 -0.0000
vn 0.0000 0.0000 -1.0000
vn -1.0000 0.0000 -0.0000
vn 0.0000 1.0000 0.0000
vn -0.0000 1.0000 0.0000
# 8 vertex normals

g Box005
s 2
f 1//1 2//1 3//1 4//2 
f 5//1 4//2 3//1 6//1 
f 7//1 5//1 6//1 8//1 
f 9//1 8//1 6//1 
s 8
f 1//3 4//3 10//3 11//3 
s 16
f 5//4 12//4 10//4 4//4 
s 32
f 13//5 14//5 15//5 16//5 
s 64
f 8//6 9//6 17//6 18//6 
f 15//6 14//6 18//6 17//6 
s 2
f 13//1 19//1 20//1 14//1 
f 18//1 14//1 20//1 
s 4
f 21//7 22//7 16//7 15//8 
f 21//7 15//8 17//8 23//7 
f 23//7 17//8 24//8 12//8 
f 12//8 24//8 25//8 10//7 
f 11//7 10//7 25//8 26//7 
s 16
f 13//4 16//4 22//4 19//4 
s 64
f 1//6 11//6 26//6 2//6 
s 2
f 18//1 20//1 7//1 8//1 
s off
f 20//3 19//3 22//3 21//3 
f 25//5 3//5 2//5 26//5 
f 23//4 7//4 20//4 21//4 
f 12//5 5//5 7//5 23//5 
f 17//3 9//3 6//3 24//3 
f 25//6 24//6 6//6 3//6 
# 23 polygons - 2 triangles

