# 3ds Max Wavefront OBJ Exporter v0.97b - (c)2007 guruware
# File Created: 11.05.2016 10:43:52

#
# object Cylinder001
#

v  -10.4461 -1.4541 20.8923
v  -9.8194 0.2505 20.8923
v  -9.8194 0.2505 -12.3295
v  -10.4461 -1.4541 -12.3295
v  -8.0148 1.7495 20.8923
v  -8.0148 1.7495 -12.3295
v  -5.2500 2.8621 20.8923
v  -5.2500 2.8621 -12.3295
v  -1.8585 3.4541 20.8923
v  -1.8585 3.4541 -12.3295
v  1.9662 3.4541 20.8923
v  1.9662 3.4541 -12.3295
v  5.3577 2.8621 20.8923
v  5.3577 2.8621 -12.3295
v  8.1225 1.7495 20.8923
v  8.1225 1.7495 -12.3295
v  9.9271 0.2505 20.8923
v  9.9271 0.2505 -12.3295
v  10.5539 -1.4541 20.8923
v  10.5539 -1.4541 -12.3295
v  -7.9933 -0.0683 -12.3295
v  -7.9933 -0.0683 20.8923
v  -8.5323 -1.4541 20.8923
v  -8.5323 -1.4541 -12.3295
v  -6.5261 1.1504 -12.3295
v  -6.5261 1.1504 20.8923
v  -4.2783 2.0549 -12.3295
v  -4.2783 2.0550 20.8923
v  -1.5210 2.5362 -12.3295
v  -1.5210 2.5363 20.8923
v  1.6287 2.5362 -12.3295
v  1.6287 2.5363 20.8923
v  4.3860 2.0549 -12.3295
v  4.3860 2.0550 20.8923
v  6.6338 1.1504 -12.3295
v  6.6338 1.1504 20.8923
v  8.1010 -0.0683 -12.3295
v  8.1010 -0.0683 20.8923
v  8.6400 -1.4541 -12.3295
v  8.6400 -1.4541 20.8923
v  -10.5539 -3.4541 21.0000
v  -10.5539 -3.4541 0.0000
v  10.4461 -3.4541 -0.0000
v  10.4461 -3.4541 21.0000
v  -10.5539 -1.4541 21.0000
v  -10.5539 -1.4541 0.0000
v  10.4461 -1.4541 -0.0000
v  10.4461 -1.4541 21.0000
v  -10.5539 -3.4541 -21.0000
v  10.4461 -3.4541 -21.0000
v  -10.5539 -1.4541 -21.0000
v  10.4461 -1.4541 -21.0000
# 52 vertices

vn -0.9386 0.3451 0.0000
vn -0.8168 0.5769 -0.0000
vn -0.5123 0.8588 -0.0000
vn -0.2741 0.9617 -0.0000
vn -0.0863 0.9963 -0.0000
vn 0.0863 0.9963 -0.0000
vn 0.2741 0.9617 -0.0000
vn 0.5123 0.8588 -0.0000
vn 0.8168 0.5769 -0.0000
vn 0.9386 0.3451 -0.0000
vn 0.8114 -0.5845 0.0000
vn 0.9320 -0.3625 -0.0000
vn 0.5123 -0.8588 0.0000
vn 0.2741 -0.9617 0.0000
vn 0.0863 -0.9963 0.0000
vn -0.0863 -0.9963 0.0000
vn -0.2741 -0.9617 0.0000
vn -0.5123 -0.8588 0.0000
vn -0.8114 -0.5845 0.0000
vn -0.9320 -0.3625 0.0000
vn -0.0000 -0.0000 1.0000
vn 0.0000 -0.0000 1.0000
vn 0.0000 0.0000 1.0000
vn 0.0000 0.0000 -1.0000
vn -0.0000 0.0000 -1.0000
vn 0.0000 -1.0000 0.0000
vn -0.0000 -0.0000 -1.0000
vn 0.0000 -0.0000 -1.0000
vn -0.0000 0.0000 1.0000
vn -0.0000 -1.0000 0.0000
vn -1.0000 0.0000 0.0000
vn 1.0000 -0.0000 -0.0000
vn 1.0000 0.0000 -0.0000
vn -0.0000 1.0000 -0.0000
vn 0.0000 1.0000 -0.0000
# 35 vertex normals

g Cylinder001
s 8
f 1//1 2//2 3//2 4//1 
f 2//2 5//3 6//3 3//2 
f 5//3 7//4 8//4 6//3 
f 7//4 9//5 10//5 8//4 
f 9//5 11//6 12//6 10//5 
f 11//6 13//7 14//7 12//6 
f 13//7 15//8 16//8 14//7 
f 15//8 17//9 18//9 16//8 
f 17//9 19//10 20//10 18//9 
f 21//11 22//11 23//12 24//12 
f 25//13 26//13 22//11 21//11 
f 27//14 28//14 26//13 25//13 
f 29//15 30//15 28//14 27//14 
f 31//16 32//16 30//15 29//15 
f 33//17 34//17 32//16 31//16 
f 35//18 36//18 34//17 33//17 
f 37//19 38//19 36//18 35//18 
f 39//20 40//20 38//19 37//19 
s 1
f 2//21 1//22 23//21 22//23 
f 4//24 3//24 21//24 24//25 
s 2
f 1//26 4//26 24//26 23//26 
s 1
f 5//23 2//21 22//23 26//23 
f 3//24 6//27 25//27 21//24 
f 7//23 5//23 26//23 28//21 
f 6//27 8//27 27//27 25//27 
f 9//21 7//23 28//21 30//21 
f 8//27 10//27 29//24 27//27 
f 11//22 9//21 30//21 32//22 
f 10//27 12//27 31//27 29//24 
f 13//23 11//22 32//22 34//23 
f 12//27 14//28 33//28 31//27 
f 15//29 13//23 34//23 36//29 
f 14//28 16//27 35//28 33//28 
f 17//22 15//29 36//29 38//29 
f 16//27 18//27 37//27 35//28 
f 19//22 17//22 38//29 40//21 
s 2
f 20//30 19//30 40//30 39//30 
s 1
f 18//27 20//24 39//25 37//27 
s 2
f 41//26 42//26 43//26 44//26 
s 16
f 45//31 46//31 42//31 41//31 
s 64
f 47//32 48//32 44//32 43//32 
s 2
f 42//26 49//26 50//26 43//26 
s 8
f 51//27 52//24 50//27 49//27 
s 16
f 46//31 51//31 49//31 42//31 
s 64
f 52//32 47//32 43//32 50//33 
s 1
f 45//34 48//34 47//34 46//34 
f 46//34 47//34 52//34 51//35 
s off
f 41//23 44//23 48//23 45//23 
# 48 polygons

