# 3ds Max Wavefront OBJ Exporter v0.97b - (c)2007 guruware
# File Created: 11.05.2016 10:42:16

#
# object Box001
#

v  -10.5000 -1.0000 10.5000
v  -10.5000 -1.0000 -10.5000
v  10.5000 -1.0000 -10.5000
v  10.5000 -1.0000 10.5000
v  -10.5000 1.0000 10.5000
v  10.5000 1.0000 10.5000
v  10.5000 1.0000 -10.5000
v  -10.5000 1.0000 -10.5000
# 8 vertices

vn 0.0000 -1.0000 -0.0000
vn 0.0000 1.0000 0.0000
vn 0.0000 0.0000 1.0000
vn 1.0000 0.0000 -0.0000
vn 0.0000 0.0000 -1.0000
vn -1.0000 0.0000 -0.0000
# 6 vertex normals

g Box001
s 2
f 1//1 2//1 3//1 4//1 
s 4
f 5//2 6//2 7//2 8//2 
s 8
f 1//3 4//3 6//3 5//3 
s 16
f 4//4 3//4 7//4 6//4 
s 32
f 3//5 2//5 8//5 7//5 
s 64
f 2//6 1//6 5//6 8//6 
# 6 polygons

